<svg>
    <defs>
        <g id="personal_data"><path d="M19,10.7c-0.2-0.4-0.5-0.6-1-0.7V7.4c0-3.6-2.8-5.3-5.6-5.4c0,0-0.1,0-0.1,0h-0.7c0,0-0.1,0-0.1,0C8.8,2.2,6,3.9,6,7.4V10
	c-0.5,0.1-0.8,0.3-1,0.7c-0.4,0.9,0.2,2.4,1.1,3.2C6.1,14,6.2,14,6.3,14c0,0,0,0,0,0c0.4,1.4,1.2,2.9,2,4v3.7c0,0.1,0.1,0.2,0.1,0.2
	c0,0,0.1,0,0.1,0c0.1,0,0.1,0,0.1,0l2.8-1.7h1.6c0.5,0,1.2-0.6,2-1.5v2.9c0,0.2,0.1,0.3,0.3,0.3c0.2,0,0.3-0.1,0.3-0.3V18
	c0.8-1.2,1.6-2.6,2-4c0,0,0,0,0,0c0.1,0,0.1,0,0.2-0.1C18.7,13.1,19.4,11.7,19,10.7z M5.6,11c0.1-0.2,0.2-0.3,0.4-0.4V12
	c0,0.3,0,0.7,0.1,1C5.6,12.3,5.4,11.4,5.6,11z M13.1,19.7h-1.7h-0.6c-0.8,0-4.3-4.2-4.3-7.7V7.4c0-3.3,2.8-4.9,5.4-4.9
	s5.4,1.5,5.4,4.9V12C17.4,15.5,14,19.7,13.1,19.7z M17.9,13c0.1-0.4,0.1-0.7,0.1-1v-1.4c0.2,0.1,0.4,0.2,0.4,0.4
	C18.6,11.4,18.4,12.3,17.9,13z M15,6.6l0.7-0.7c0.4-0.4,0.3-1-0.1-1.4c-0.4-0.4-1-0.5-1.4-0.1L13.4,5l-0.7-0.7
	c-0.2-0.2-0.4-0.2-0.6-0.2c-0.4,0-0.9,0.4-1.1,0.8c-0.1,0.4-0.1,0.7,0.2,1l0.7,0.7l-0.7,0.7c-0.4,0.4-0.3,1,0.1,1.4
	C11.6,8.9,11.9,9,12.2,9c0.2,0,0.4-0.1,0.6-0.2l0.7-0.7l0.7,0.7C14.2,8.9,14.4,9,14.7,9c0.4,0,0.9-0.4,1.1-0.8
	c0.1-0.4,0.1-0.7-0.2-1L15,6.6z M14.5,4.8c0.2-0.2,0.5,0,0.6,0.1c0.1,0.1,0.2,0.2,0.2,0.4c0,0.1,0,0.2-0.1,0.2l-0.7,0.7l-0.7-0.7
	L14.5,4.8z M12.4,8.4c-0.2,0.2-0.5,0-0.6-0.1c-0.1-0.1-0.3-0.4-0.1-0.6L12.3,7L13,7.7L12.4,8.4z M15.3,8c-0.1,0.3-0.6,0.6-0.8,0.4
	l-2.9-2.9c0,0-0.1-0.1,0-0.3c0.1-0.3,0.4-0.5,0.6-0.5c0.1,0,0.1,0,0.2,0.1l2.9,2.9C15.3,7.7,15.4,7.8,15.3,8z"/></g>
        <g id="organ_donon_card"><path d="M14.8,7.7l1.3-1.3c0,0,1.3-0.9,0.5-1.9c-0.5-0.6-1.1-1.3-1.7-1.3c-0.1,0-0.2,0-0.3,0.1c-0.3,0.1-0.6,0.2-0.8,0.4l0-0.3
	c0.1-0.2-0.6-0.7-1.5-1C11.8,2.1,11.2,2,10.8,2c-0.2,0-0.4,0-0.4,0.1c0,0,0,0,0,0l0,0L9.5,6.6L9.4,4.9l0,0c0,0,0,0,0,0
	c0-0.2-0.3-0.2-0.7-0.2c-0.3,0-0.7,0.1-1.1,0.2C6.8,5,6.1,5.4,6.2,5.7l0,1.5C6.1,7.1,5.9,7.1,5.8,7.1c-0.1,0-0.3,0.1-0.3,0.2
	C1.8,18.6,10.1,22,15.2,22c1.2,0,2.2-0.2,2.9-0.5C20.4,20.5,19.9,10.2,14.8,7.7z M11.1,2.9c0.2,0,0.6,0.1,1,0.2
	c0.4,0.2,0.8,0.3,0.9,0.4l-0.1,0.6c-1,0.6-1.8,1.2-2.4,1.8L11.1,2.9z M7,5.9c0.2-0.1,0.4-0.2,0.9-0.3c0.3-0.1,0.5-0.1,0.7-0.1
	l0.1,2.6C8.5,8.5,8.3,8.8,8.3,8.8S7.7,8.2,7,7.7L7,5.9z M18.2,20c-0.2,0.5-0.4,0.7-0.5,0.8c-0.6,0.3-1.5,0.4-2.5,0.4
	c-1.5,0-3.1-0.3-4.5-0.9C10,20,9.2,19.6,8.6,19.1c-0.7-0.5-1.3-1.1-1.7-1.7c-0.8-1.1-1.3-2.4-1.4-3.9c-0.2-1.6,0.1-3.4,0.7-5.4
	c0,0,0,0,0.1,0c0.2,0.1,0.4,0.3,0.7,0.5C7.4,9,7.7,9.4,7.7,9.4l0.8,0.8l0.5-1.1c0,0,0.4-0.9,1.4-1.9c0.5-0.6,1.2-1.2,1.8-1.7
	C13.1,5,14,4.5,15,4.1c0,0,0.2,0.1,0.4,0.3C15.6,4.5,15.9,4.8,16,5c0.1,0.1,0.1,0.1,0.1,0.2c0,0.2-0.3,0.4-0.4,0.5l-0.1,0l-0.1,0.1
	l-1.3,1.3l-0.8,0.8c-0.2,0.2-0.3,0.4-0.5,0.6c-0.6,1-1.3,2.6-0.8,4.8c0,0.2,0.2,0.3,0.4,0.3c0.2,0,0.4-0.2,0.4-0.4c0,0,0-0.1,0-0.1
	l0,0c0,0,0,0,0,0c-0.3-1.6-0.1-2.9,0.7-4.1c0.2-0.3,0.4-0.5,0.6-0.7l0.3,0.1c1.7,0.8,2.6,2.6,3.2,3.9c0.7,1.7,1,3.7,1,5.5
	C18.5,18.7,18.4,19.4,18.2,20z"/></g>
        <g id="settings_privacy"><path d="M17.8,22c1.1,0,1.9-0.9,1.9-1.9v-7.3c0-1.1-0.9-1.9-1.9-1.9h-0.2V7.5C17.5,4.5,15,2,12,2S6.5,4.5,6.5,7.5v3.3H6.2
	c-1.1,0-1.9,0.9-1.9,1.9v7.3c0,1.1,0.9,1.9,1.9,1.9H17.8z M7.2,7.5c0-2.7,2.1-4.8,4.8-4.8s4.8,2.1,4.8,4.8v3.3H7.2V7.5z M5.1,20.1
	v-7.4c0-0.6,0.5-1.2,1.2-1.2h11.6c0.6,0,1.2,0.5,1.2,1.2v7.3c0,0.6-0.5,1.2-1.2,1.2H6.2C5.6,21.3,5.1,20.7,5.1,20.1z M11,15.2
	c0.2-0.5,0.8-0.8,1.3-0.7c0.5,0.1,0.9,0.5,0.9,1.1c0,0.4-0.2,0.7-0.5,0.9c-0.1,0.1-0.1,0.1-0.1,0.2c0,0.5,0,1,0,1.5l0,0
	c0,0.2-0.1,0.4-0.3,0.5c-0.4,0.2-0.9-0.1-0.9-0.5l0,0c0-0.5,0-1,0-1.5c0-0.1,0-0.2-0.1-0.2C10.9,16.3,10.7,15.7,11,15.2z"/></g>
        <g id="print_card"><path d="M18.1,22H6v-9.1h12V22z M6.8,21.2h10.4v-7.5H6.8V21.2z"/>
            <path d="M18.2,8.3H6V2h12.2V8.3z M6.8,7.5h10.6V2.8H6.8V7.5z"/>
            <rect x="12" y="15.6" width="4.2" height="0.4"/>
            <rect x="12" y="17.4" width="4.2" height="0.4"/>
            <rect x="12" y="19" width="4.2" height="0.4"/>
            <path d="M6.3,18.8H3.7c-0.5,0-0.7-0.2-0.9-0.3c-0.3-0.3-0.3-0.7-0.3-0.7l0-9.2c0-0.1,0-0.4,0.2-0.7c0.1-0.2,0.4-0.4,0.9-0.4l16.8,0
		c0.1,0,0.4,0,0.7,0.2c0.2,0.1,0.4,0.3,0.4,0.8l0,9.3c0,0,0,0.4-0.3,0.7c-0.1,0.1-0.4,0.3-0.8,0.3h-2.7V18h2.7c0.1,0,0.2,0,0.2-0.1
		c0,0,0.1-0.1,0.1-0.1V8.5c0-0.1,0-0.1-0.1-0.2c0,0-0.1,0-0.1,0l-0.1,0l-16.8,0c-0.2,0-0.2,0-0.3,0.1c0,0,0,0.1,0,0.1l0,0.1v9.3
		c0,0,0,0.1,0,0.2c0,0,0.2,0.1,0.3,0.1h2.7V18.8z"/>
            <path d="M18.8,10.1c-0.3,0-0.5-0.2-0.5-0.5s0.2-0.5,0.5-0.5s0.5,0.2,0.5,0.5S19.1,10.1,18.8,10.1z M18.8,9.5c-0.1,0-0.1,0-0.1,0.1
		c0,0.1,0.2,0.1,0.2,0C18.9,9.5,18.8,9.5,18.8,9.5z"/>
            <path d="M17.3,10.1c-0.3,0-0.5-0.2-0.5-0.5s0.2-0.5,0.5-0.5s0.5,0.2,0.5,0.5S17.6,10.1,17.3,10.1z M17.3,9.5c-0.1,0-0.1,0-0.1,0.1
		c0,0.1,0.2,0.1,0.2,0C17.4,9.5,17.3,9.5,17.3,9.5z"/>
            <rect x="4.2" y="12.8" width="15.8" height="0.8"/>
            <path d="M11.2,19.4H7.9v-3.9h3.3V19.4z M8.3,19h2.5V16H8.3V19z"/></g>
        <g id="buy_products"><path d="M21.6,3.5h-1.3c-0.5,0-0.7,0.3-0.8,0.4c-0.1,0.2-0.1,0.3-0.1,0.4l-0.2,1H2.9c-0.3,0-0.6,0.1-0.7,0.3C2.1,5.8,2,6,2,6.3
	c0,0,0,0,0,0l1.8,7.5c0.1,0.4,0.5,0.9,1.1,0.9h12.2l-0.3,1.7c-0.2,0-0.3-0.1-0.5-0.1c-1,0-1.9,0.7-2.1,1.7H7.7
	c-0.2-0.9-1-1.7-2.1-1.7c-1.2,0-2.1,0.9-2.1,2.1c0,1.2,0.9,2.1,2.1,2.1c1,0,1.9-0.7,2.1-1.7h6.5c0.2,0.9,1,1.7,2.1,1.7
	c1.2,0,2.1-0.9,2.1-2.1c0-0.7-0.3-1.2-0.7-1.6l0.7-3.3l0,0l1.6-7.6l0,0l0,0l0.2-1.4c0,0,0,0,0,0c0,0,0,0,0.1,0h1.3
	c0.2,0,0.4-0.2,0.4-0.4C22,3.7,21.8,3.5,21.6,3.5z M5.7,19.6c-0.7,0-1.2-0.5-1.2-1.2c0-0.7,0.5-1.2,1.2-1.2s1.2,0.5,1.2,1.2
	C6.9,19.1,6.4,19.6,5.7,19.6z M16.3,19.6c-0.7,0-1.2-0.5-1.2-1.2c0-0.7,0.5-1.2,1.2-1.2c0.7,0,1.2,0.5,1.2,1.2
	C17.5,19.1,17,19.6,16.3,19.6z M2.9,6.2h16l-0.3,1.6H3.3L2.9,6.2L2.9,6.2C2.9,6.2,2.9,6.2,2.9,6.2z M4.7,13.6L3.5,8.8h14.9l-1.1,5
	c0,0.1-0.1,0.1-0.1,0.1H4.9C4.8,13.8,4.7,13.7,4.7,13.6z"/></g>
        <g id="doctors"><path d="M19,10.7c-0.2-0.4-0.5-0.6-1-0.7V7.4c0-3.6-2.8-5.3-5.6-5.4c0,0-0.1,0-0.1,0h-0.7c0,0-0.1,0-0.1,0C8.8,2.2,6,3.9,6,7.4V10
	c-0.5,0.1-0.8,0.3-1,0.7c-0.4,0.9,0.2,2.4,1.1,3.2C6.1,14,6.2,14,6.3,14c0,0,0,0,0,0c0.4,1.4,1.2,2.9,2,4v3.7c0,0.1,0.1,0.2,0.1,0.2
	c0,0,0.1,0,0.1,0c0.1,0,0.1,0,0.1,0l2.8-1.7h1.6c0.5,0,1.2-0.6,2-1.5v2.9c0,0.2,0.1,0.3,0.3,0.3c0.2,0,0.3-0.1,0.3-0.3V18
	c0.8-1.2,1.6-2.6,2-4c0,0,0,0,0,0c0.1,0,0.1,0,0.2-0.1C18.7,13.1,19.4,11.7,19,10.7z M5.6,11c0.1-0.2,0.2-0.3,0.4-0.4V12
	c0,0.3,0,0.7,0.1,1C5.6,12.3,5.4,11.4,5.6,11z M13.1,19.7h-1.7h-0.6c-0.5,0-2.1-1.6-3.1-3.7c0-2.7,3.8-4.8,4.3-4.9
	c0.5,0,4.3,1.6,4.3,4.9C15.2,18.1,13.7,19.7,13.1,19.7z M17.4,12c0,1-0.3,2-0.7,3c-0.7-2.9-4-4.4-4.7-4.4c-0.7,0-4,1.9-4.7,4.5
	c-0.4-1-0.7-2.1-0.7-3.1V7.4c0-3.3,2.8-4.9,5.4-4.9s5.4,1.5,5.4,4.9V12z M17.9,13c0.1-0.4,0.1-0.7,0.1-1v-1.4
	c0.2,0.1,0.4,0.2,0.4,0.4C18.6,11.4,18.4,12.3,17.9,13z M7.3,7.2C7.2,7.2,7.1,7.4,7.2,7.5c0,0.1,0.2,0.2,0.3,0.2c0,0,0.1,0,0.1,0
	c4.4-1.7,8.9,0,8.9,0c0.1,0.1,0.3,0,0.4-0.2c0.1-0.1,0-0.3-0.2-0.4C16.5,7.1,11.9,5.4,7.3,7.2z M10.6,5.1h0.9v0.9
	c0,0.2,0.1,0.3,0.3,0.3h0.6c0.2,0,0.3-0.1,0.3-0.3V5.1h0.9c0.2,0,0.3-0.1,0.3-0.3V4.2c0-0.2-0.1-0.3-0.3-0.3h-0.9V3.1
	c0-0.2-0.1-0.3-0.3-0.3h-0.6c-0.2,0-0.3,0.1-0.3,0.3v0.9h-0.9c-0.2,0-0.3,0.1-0.3,0.3v0.6C10.3,4.9,10.4,5.1,10.6,5.1z"/></g>
        <g id="medications"><path d="M18,6.7c-2.2,0-4,1.8-4,4s1.8,4,4,4s4-1.8,4-4S20.2,6.7,18,6.7z M18,14c-1.8,0-3.3-1.5-3.3-3.3s1.5-3.3,3.3-3.3
	c1.8,0,3.3,1.5,3.3,3.3S19.8,14,18,14z M16.6,8.8c-0.1-0.1-0.3-0.1-0.5,0C16,9,16,9.2,16.1,9.3l3.3,3.3c0.1,0.1,0.1,0.1,0.2,0.1
	c0.1,0,0.2,0,0.2-0.1c0.1-0.1,0.1-0.3,0-0.5L16.6,8.8z M10.7,14c-2.2,0-4,1.8-4,4s1.8,4,4,4s4-1.8,4-4S12.9,14,10.7,14z M10.7,21.3
	c-1.8,0-3.3-1.5-3.3-3.3c0-1.8,1.5-3.3,3.3-3.3S14,16.2,14,18C14,19.8,12.6,21.3,10.7,21.3z M9.3,16.1C9.2,16,9,16,8.8,16.1
	c-0.1,0.1-0.1,0.3,0,0.5l3.3,3.3c0.1,0.1,0.1,0.1,0.2,0.1s0.2,0,0.2-0.1c0.1-0.1,0.1-0.3,0-0.5L9.3,16.1z M7.3,6.8
	C7.2,6.7,7,6.7,6.8,6.8C6.7,7,6.7,7.2,6.8,7.3l1.3,1.3c0.1,0.1,0.1,0.1,0.2,0.1s0.2,0,0.2-0.1c0.1-0.1,0.1-0.3,0-0.5L7.3,6.8z
	 M12.6,2.9c-0.3-0.3-1-0.9-1.9-0.9C10,2,9.4,2.3,8.8,2.9l-6,6c-1.4,1.4-0.9,2.9,0,3.8c0.3,0.3,1,0.9,1.9,0.9c0.7,0,1.3-0.3,1.9-0.9
	l6-6C14,5.3,13.5,3.7,12.6,2.9z M6.2,12.1c-0.4,0.4-0.9,0.7-1.4,0.7c-0.7,0-1.2-0.5-1.4-0.7c-0.2-0.2-0.6-0.6-0.7-1.2
	c-0.1-0.6,0.1-1.1,0.7-1.6l6-6c0.4-0.4,0.9-0.7,1.4-0.7c0.7,0,1.2,0.5,1.4,0.7c0.2,0.2,0.6,0.6,0.7,1.2c0.1,0.6-0.1,1.1-0.7,1.6
	L6.2,12.1z"/></g>
        <g id="living_will"><path d="M10.6,16.3h0.9v0.9c0,0.2,0.1,0.3,0.3,0.3h0.6c0.2,0,0.3-0.1,0.3-0.3v-0.9h0.9c0.2,0,0.3-0.1,0.3-0.3v-0.6
	c0-0.2-0.1-0.3-0.3-0.3h-0.9v-0.9c0-0.2-0.1-0.3-0.3-0.3h-0.6c-0.2,0-0.3,0.1-0.3,0.3v0.9h-0.9c-0.2,0-0.3,0.1-0.3,0.3V16
	C10.3,16.2,10.4,16.3,10.6,16.3z M17.7,8.3h-2.8l-1.4-1L14,6.4c0,0,0-0.1,0-0.1V4.6c0,0,0-0.1,0-0.1c0-0.1-0.7-1.3-2-1.3
	s-1.9,1.2-2,1.3c0,0,0,0.1,0,0.1v1.7c0,0,0,0.1,0,0.1l0.5,0.9l-1.4,1H6.3C6.1,8.3,6,8.4,6,8.6v12C6,21.4,6.6,22,7.4,22h9.1
	c0.8,0,1.4-0.6,1.4-1.4v-12C18,8.4,17.9,8.3,17.7,8.3z M11,7.7c0.1-0.1,0.2-0.2,0.1-0.4l-0.5-1.1V4.6c0.1-0.2,0.6-0.9,1.4-0.9
	c0.8,0,1.3,0.7,1.4,0.9v1.6l-0.5,1.1c-0.1,0.1,0,0.3,0.1,0.4l0.9,0.6h-3.8L11,7.7z M17.4,20.6c0,0.5-0.4,0.9-0.9,0.9H7.4
	c-0.5,0-0.9-0.4-0.9-0.9V8.9h10.9V20.6z M16.6,2H7.4C6.6,2,6,2.6,6,3.4v1.7c0,0.2,0.1,0.3,0.3,0.3s0.3-0.1,0.3-0.3V3.4
	C6.6,3,7,2.6,7.4,2.6h9.1c0.5,0,0.9,0.4,0.9,0.9v1.7c0,0.2,0.1,0.3,0.3,0.3c0.2,0,0.3-0.1,0.3-0.3V3.4C18,2.6,17.4,2,16.6,2z"/></g>
        <g id="allergies"><path d="M20.1,12l1.4-2.8c0.1-0.2,0-0.4-0.1-0.5l-2.8-1.5L18,4.1c0-0.2-0.2-0.3-0.4-0.3l-3.1,0.4l-2.3-2.2c-0.1-0.1-0.3-0.1-0.5,0
		L9.5,4.3L6.4,3.8C6.2,3.8,6,3.9,6,4.1L5.4,7.2L2.7,8.7C2.5,8.8,2.4,9,2.5,9.2L3.9,12l-1.4,2.8c-0.1,0.2,0,0.4,0.1,0.5l2.8,1.5
		L6,19.9c0,0.2,0.2,0.3,0.4,0.3l3.1-0.4l2.3,2.2C11.8,22,11.9,22,12,22c0.1,0,0.2,0,0.2-0.1l2.3-2.2l3.1,0.4c0.2,0,0.4-0.1,0.4-0.3
		l0.5-3.1l2.8-1.5c0.2-0.1,0.2-0.3,0.1-0.5L20.1,12z M18.1,16.2c-0.1,0-0.2,0.1-0.2,0.2l-0.5,2.9l-3-0.4c-0.1,0-0.2,0-0.3,0.1
		L12,21.2l-2.1-2.1C9.8,19,9.7,19,9.6,19c0,0,0,0,0,0l-3,0.4l-0.5-2.9c0-0.1-0.1-0.2-0.2-0.2l-2.6-1.4l1.3-2.7c0-0.1,0-0.2,0-0.3
		L3.3,9.2l2.6-1.4c0.1,0,0.2-0.1,0.2-0.2l0.5-2.9l3,0.4c0.1,0,0.2,0,0.3-0.1L12,2.8l2.1,2.1C14.2,5,14.3,5,14.4,5l3-0.4l0.5,2.9
		c0,0.1,0.1,0.2,0.2,0.2l2.6,1.4l-1.3,2.7c0,0.1,0,0.2,0,0.3l1.3,2.7L18.1,16.2z"/>
            <path d="M12.9,7.2h-1.8c-0.2,0-0.3,0.2-0.3,0.3v5.4c0,0.2,0.2,0.3,0.3,0.3h1.8c0.2,0,0.3-0.2,0.3-0.3V7.5
		C13.2,7.3,13.1,7.2,12.9,7.2z M12.5,12.5h-1.1V7.9h1.1V12.5z"/>
            <path d="M12,14.3c-0.7,0-1.2,0.6-1.2,1.2c0,0.7,0.6,1.2,1.2,1.2c0.7,0,1.2-0.6,1.2-1.2C13.2,14.9,12.7,14.3,12,14.3z M12,16.1
		c-0.3,0-0.5-0.2-0.5-0.5c0-0.3,0.2-0.5,0.5-0.5c0.3,0,0.5,0.2,0.5,0.5C12.5,15.9,12.3,16.1,12,16.1z"/></g>
        <g id="emergency_contacts"><path d="M16.2,14.3c-0.1,0-0.2,0.1-0.3,0.2l-1.4,2.1c-4.2-0.1-7-2.9-7.1-7.1l2.1-1.4C9.6,8,9.7,7.9,9.7,7.8c0-0.1-0.1-5.8-5-5.8
	C4.6,2,4.5,2,4.5,2.1C3,3.1,2.2,4.9,2,7c-0.1,2,0.3,5.9,4.7,10.3c3.1,3,6.5,4.7,9.7,4.7c2.3,0,4.3-0.9,5.5-2.4
	c0-0.1,0.1-0.1,0.1-0.2C22,14.4,16.3,14.3,16.2,14.3z M16.5,21.2c-3,0-6.3-1.6-9.2-4.5C3.1,12.6,2.7,8.9,2.8,7
	c0.1-1.8,0.9-3.3,2-4.3c3.6,0.1,4,3.9,4.1,4.8L6.8,9C6.7,9.1,6.6,9.2,6.6,9.3c0,4.8,3.2,8.1,8.1,8.1c0.1,0,0.2-0.1,0.3-0.2l1.4-2.1
	c0.9,0,4.7,0.5,4.8,4.1C20.2,20.5,18.5,21.2,16.5,21.2z M15.5,7.4h1.2v1.2c0,0.2,0.2,0.4,0.4,0.4h0.8c0.2,0,0.4-0.2,0.4-0.4V7.4h1.2
	c0.2,0,0.4-0.2,0.4-0.4V6.2c0-0.2-0.2-0.4-0.4-0.4h-1.2V4.7c0-0.2-0.2-0.4-0.4-0.4H17c-0.2,0-0.4,0.2-0.4,0.4v1.2h-1.2
	c-0.2,0-0.4,0.2-0.4,0.4V7C15.1,7.2,15.2,7.4,15.5,7.4z"/></g>
        <g id="glasses_pass"><path d="M21.7,14.2C21.7,14.2,21.7,14.2,21.7,14.2L19,5.7c0,0,0,0,0,0c-0.4-1.2-1.6-1.9-2.9-1.5c-0.3,0.1-0.4,0.4-0.3,0.6
	c0.1,0.3,0.4,0.4,0.6,0.3C17.1,5,17.9,5.3,18.1,6c0,0,0,0,0,0c0,0,0,0,0,0l1.9,6.2c-0.6-0.4-1.3-0.6-2.1-0.6c-2.1,0-3.9,1.6-4.1,3.7
	h-3.6c-0.3-2-2-3.6-4.1-3.6c-0.8,0-1.5,0.2-2.1,0.6L6,6c0,0,0,0,0,0c0,0,0,0,0,0C6.2,5.3,6.9,5,7.5,5.2c0.3,0.1,0.6-0.1,0.6-0.3
	c0.1-0.3-0.1-0.6-0.3-0.6C6.6,3.8,5.4,4.5,5,5.7c0,0,0,0,0,0l-2.7,8.5c0,0,0,0,0,0.1c-0.2,0.5-0.3,1-0.3,1.5c0,2.3,1.8,4.1,4.1,4.1
	c2.1,0,3.8-1.6,4.1-3.6h3.6c0.3,2,2,3.5,4.1,3.5c2.3,0,4.1-1.8,4.1-4.1C22,15.2,21.9,14.7,21.7,14.2z M6.1,18.9
	c-1.7,0-3.1-1.4-3.1-3.1c0-1.7,1.4-3.1,3.1-3.1s3.1,1.4,3.1,3.1C9.2,17.5,7.8,18.9,6.1,18.9z M17.9,18.8c-1.7,0-3.1-1.4-3.1-3.1
	c0-1.7,1.4-3.1,3.1-3.1c1.7,0,3.1,1.4,3.1,3.1C21,17.4,19.6,18.8,17.9,18.8z"/></g>
        <g id="health_insurance"><path d="M20.3,20.6H3.7c-1,0-1.7-0.8-1.7-1.7V5.1c0-1,0.8-1.7,1.7-1.7h16.6c1,0,1.7,0.8,1.7,1.7v13.8C22,19.8,21.2,20.6,20.3,20.6z
	 M3.7,4.1c-0.6,0-1,0.5-1,1v13.8c0,0.6,0.5,1,1,1h16.6c0.6,0,1-0.5,1-1V5.1c0-0.6-0.5-1-1-1H3.7z M13.4,16.5h-2.8
	c-0.2,0-0.3-0.2-0.3-0.3v-2.4H7.9c-0.2,0-0.3-0.2-0.3-0.3v-2.8c0-0.2,0.2-0.3,0.3-0.3h2.4V7.9c0-0.2,0.2-0.3,0.3-0.3h2.8
	c0.2,0,0.3,0.2,0.3,0.3v2.4h2.4c0.2,0,0.3,0.2,0.3,0.3v2.8c0,0.2-0.2,0.3-0.3,0.3h-2.4v2.4C13.7,16.3,13.6,16.5,13.4,16.5z M11,15.8
	H13v-2.4c0-0.2,0.2-0.3,0.3-0.3h2.4V11h-2.4c-0.2,0-0.3-0.2-0.3-0.3V8.2H11v2.4c0,0.2-0.2,0.3-0.3,0.3H8.2V13h2.4
	c0.2,0,0.3,0.2,0.3,0.3V15.8z"/></g>
        <g id="health_conditions"><path d="M12,21c0,0-0.1,0-0.1,0C7.1,18.9,2,13.7,2,9.1C2,4.9,4.7,3,7.3,3c1.9,0,3.9,1,4.7,3c0.8-1.9,2.8-3,4.7-3
	C19.3,3,22,4.9,22,9.1c0,4.6-5.1,9.9-9.9,11.9C12.1,21,12,21,12,21z M7.3,3.7C5,3.7,2.6,5.3,2.6,9.1c0,4.2,4.9,9.3,9.4,11.3
	c4.5-2,9.4-7,9.4-11.3c0-3.7-2.4-5.4-4.7-5.4c-2.2,0-4.3,1.4-4.3,4.1c0,0.2-0.1,0.3-0.3,0.3c-0.2,0-0.3-0.1-0.3-0.3
	C11.7,5.1,9.5,3.7,7.3,3.7z M14.1,12.6l-1-0.5l1.2-2.9c0.1-0.2,0-0.4-0.2-0.5c-0.2-0.1-0.4,0-0.5,0.1L11,12.7C11,12.8,11,12.9,11,13
	c0,0.1,0.1,0.2,0.2,0.2l1,0.6L11,16.7c-0.1,0.2,0,0.4,0.2,0.5c0.1,0,0.1,0,0.2,0c0.1,0,0.2-0.1,0.3-0.2l2.6-3.9
	c0.1-0.1,0.1-0.2,0.1-0.3C14.3,12.7,14.2,12.6,14.1,12.6z"/></g>
        <g id="is_completed_done"><path d="M8.4,16.4l-4.8-4.8L2,13.3l6.4,6.4L22,6l-1.6-1.6L8.4,16.4z"/></g>
        <g id="is_completed_undone"><path d="M14,15h-4V2h4V15z M14,22h-4v-4h4V22z"/></g>
        <g id="arrow_down_drop_circle_outline"><path d="M12,2A10,10 0 0,0 2,12A10,10 0 0,0 12,22A10,10 0 0,0 22,12A10,10 0 0,0 12,2M12,4A8,8 0 0,1 20,12A8,8 0 0,1 12,20A8,8 0 0,1 4,12A8,8 0 0,1 12,4M7,10L12,15L17,10H7Z" /></g>
        <g id="upload"><path d="M20.7,9.9c-0.8-0.8-1.9-1.3-3.1-1.3c-0.3-1.5-1.7-2.7-3.3-2.7c-0.2,0-0.5,0-0.7,0.1c-1-1.2-2.5-1.9-4.1-1.9
		C6.4,4.1,4,6.5,4,9.5c0,0.3,0,0.7,0.1,1C2.8,11.1,2,12.4,2,13.9c0,0.9,0.3,1.8,0.9,2.5c0.6,0.7,1.4,1.1,2.2,1.3
		c0.2,0.1,0.4,0.1,0.6,0.1H7c0.2,0,0.3-0.2,0.3-0.3S7.2,17,7,17H5.8c-0.1,0-0.3,0-0.4-0.1c0,0,0,0,0,0c-0.7-0.1-1.4-0.5-1.8-1
		c-0.5-0.6-0.8-1.3-0.8-2c0-1.2,0.8-2.4,1.9-2.9c0.2-0.1,0.2-0.2,0.2-0.4c-0.1-0.4-0.1-0.7-0.1-1.1c0-2.6,2.1-4.8,4.8-4.8
		c1.5,0,2.8,0.7,3.7,1.8c0.1,0.1,0.2,0.2,0.4,0.1c0.2-0.1,0.5-0.1,0.8-0.1c1.4,0,2.5,1.1,2.6,2.4c0,0.2,0.2,0.3,0.4,0.3
		c1.1,0,2.1,0.4,2.9,1.1c0.7,0.7,1.1,1.7,1.1,2.7c0,2.1-1.7,3.8-3.8,3.8l0,0c0,0,0,0-0.1,0c-0.1,0-0.1,0-0.2,0h-0.3
		c-0.2,0-0.3,0.2-0.3,0.3s0.2,0.3,0.3,0.3h0.3c0.1,0,0.2,0,0.2,0c0,0,0,0,0.1,0c2.5,0,4.5-2,4.5-4.5C22,11.9,21.5,10.8,20.7,9.9z"/>
            <path d="M12.8,10.3c-0.5-0.5-1.3-0.5-1.7,0l-3.1,3.1c-0.2,0.2-0.4,0.5-0.4,0.9c0,0.3,0.1,0.6,0.4,0.9c0.5,0.5,1.3,0.5,1.7,0l1-1
		l0,4.6c0,0.7,0.6,1.2,1.2,1.2c0.7,0,1.2-0.6,1.2-1.2l0-4.6c0.2,0.2,0.6,0.6,1.1,1.1c0.5,0.5,1.3,0.5,1.7,0c0.5-0.5,0.5-1.3,0-1.7
		L12.8,10.3z M15.5,14.7c-0.2,0.2-0.6,0.2-0.8,0c-1.4-1.4-1.7-1.7-1.7-1.7C13,13,12.8,12.9,12.7,13c-0.1,0.1-0.2,0.2-0.2,0.3l0,5.4
		c0,0.3-0.2,0.5-0.5,0.5c-0.3,0-0.5-0.2-0.5-0.5l0-5.4c0-0.1-0.1-0.3-0.2-0.3c0,0-0.1,0-0.1,0c-0.1,0-0.2,0-0.2,0.1l-1.6,1.6
		c-0.2,0.2-0.6,0.2-0.8,0c-0.1-0.1-0.2-0.2-0.2-0.4c0-0.1,0.1-0.3,0.2-0.4l3.1-3.1c0.2-0.2,0.6-0.2,0.8,0l3.2,3.2
		C15.7,14.2,15.7,14.5,15.5,14.7z"/></g>
        <g id="arrow_left"><path d="M21.6,12.4H2.4C2.2,12.4,2,12.2,2,12s0.2-0.4,0.4-0.4h19.2c0.2,0,0.4,0.2,0.4,0.4S21.8,12.4,21.6,12.4z"/>
            <path d="M9.9,19.9c-0.1,0-0.2,0-0.3-0.1l-7.5-7.5c-0.2-0.2-0.2-0.4,0-0.6l7.5-7.5C9.8,4,10,4,10.2,4.2c0.2,0.2,0.2,0.4,0,0.6L3,12
		l7.2,7.2c0.2,0.2,0.2,0.4,0,0.6C10.1,19.9,10,19.9,9.9,19.9z"/></g>
        <g id="upgrade"><path d="M3.7,18.1L3.7,18.1c-0.1,0-0.2,0-0.2-0.1l-1.4-1.4c-0.1-0.1-0.1-0.3,0-0.4L9.3,9c0.1-0.1,0.3-0.1,0.4,0l3.6,3.6l4.3-4.3
	l-2-2c-0.1-0.1-0.1-0.2-0.1-0.3c0-0.1,0.2-0.2,0.3-0.2h5.8C21.9,5.9,22,6,22,6.2V12c0,0.1-0.1,0.2-0.2,0.3c-0.1,0-0.3,0-0.3-0.1
	l-2-2l-5.9,5.9c-0.1,0.1-0.3,0.1-0.4,0l-3.6-3.6L3.9,18C3.8,18.1,3.8,18.1,3.7,18.1z M2.8,16.4l0.9,0.9l5.6-5.6
	c0.1-0.1,0.3-0.1,0.4,0l3.6,3.6l5.9-5.9c0.1-0.1,0.3-0.1,0.4,0l1.7,1.7V6.5h-4.7l1.7,1.7c0.1,0.1,0.1,0.1,0.1,0.2
	c0,0.1,0,0.2-0.1,0.2l-4.7,4.7c-0.1,0.1-0.3,0.1-0.4,0L9.5,9.7L2.8,16.4z"/></g>
        <g id="euro"><path d="M19.5,19.2c-1.4,0.9-3.1,1.4-4.8,1.4c-3.8,0-7.1-2.5-8.2-6h9.8c0.4,0,0.7-0.3,0.7-0.7c0-0.4-0.3-0.7-0.7-0.7H6.1
			C6.1,12.9,6,12.4,6,12c0-0.4,0-0.9,0.1-1.3h11c0.4,0,0.7-0.3,0.7-0.7c0-0.4-0.3-0.7-0.7-0.7H6.5c1.1-3.5,4.4-6,8.2-6
			c1.4,0,2.7,0.3,4,1c0.3,0.2,0.7,0,0.9-0.3c0.2-0.3,0-0.7-0.3-0.9c-1.4-0.7-3-1.1-4.6-1.1c-4.6,0-8.5,3.1-9.6,7.3H4.2
			c-0.4,0-0.7,0.3-0.7,0.7c0,0.4,0.3,0.7,0.7,0.7h0.6c-0.1,0.4-0.1,0.9-0.1,1.3c0,0.4,0,0.9,0.1,1.3H4.2c-0.4,0-0.7,0.3-0.7,0.7
			c0,0.4,0.3,0.7,0.7,0.7h0.9c1.2,4.2,5,7.3,9.6,7.3c2,0,3.9-0.6,5.5-1.7c0.3-0.2,0.4-0.6,0.2-0.9C20.2,19.1,19.8,19,19.5,19.2z"/></g>
        <g id="key"><path d="M21.3,2.6l-1.5-0.3c-0.3-0.1-0.8,0.1-1,0.3l-6.9,6.9c0,0-0.1,0-0.1,0l-1.3-1.3C10.3,8.1,10.2,8,10,8C9.8,8,9.5,8.2,9.4,8.5
		l-0.6,1.9c0,0.1-0.1,0.1-0.2,0.1c-0.3-0.1-0.7-0.1-1-0.1c-1.5,0-2.9,0.6-4,1.7c-1.1,1.1-1.7,2.5-1.7,4c0,1.5,0.6,2.9,1.7,4
		c1.1,1.1,2.5,1.7,4,1.7c1.5,0,2.9-0.6,4-1.7c1.3-1.3,1.9-3.2,1.6-5c0-0.1,0-0.1,0.1-0.2l1.9-0.6c0.2-0.1,0.4-0.2,0.4-0.4
		c0-0.2,0-0.4-0.2-0.6L14.2,12c0,0,0-0.1,0-0.1l1.3-1.3c0.1-0.1,0.2-0.1,0.3-0.1l1.5,0.3c0.3,0.1,0.5,0,0.6-0.2
		c0.1-0.1,0.2-0.3,0.1-0.5l-0.3-1.4l1.4,0.3c0.2,0,0.5,0,0.6-0.2C20,8.6,20.1,8.4,20,8.2l-0.3-1.4L21.2,7c0,0,0.1,0,0.1,0
		c0.2,0,0.4-0.1,0.5-0.2C21.9,6.7,22,6.5,22,6.3V3.4C22,3,21.7,2.7,21.3,2.6z M21.3,6.3L19.8,6c-0.3-0.1-0.5,0-0.6,0.2
		C19,6.4,19,6.6,19,6.8l0.3,1.4l-1.4-0.3c-0.2-0.1-0.5,0-0.6,0.2c-0.1,0.1-0.2,0.3-0.1,0.5l0.3,1.4L16,9.8c-0.3-0.1-0.7,0.1-1,0.3
		l-1.3,1.3c-0.3,0.3-0.3,0.8,0,1.1l1.2,1.2l-1.8,0.6c-0.4,0.1-0.6,0.5-0.6,1c0.3,1.6-0.2,3.2-1.4,4.4C10.2,20.5,9,21,7.7,21
		c-1.3,0-2.6-0.5-3.5-1.5c-0.9-0.9-1.5-2.2-1.5-3.5c0-1.3,0.5-2.6,1.5-3.5c0.9-0.9,2.2-1.4,3.5-1.4c0.3,0,0.6,0,0.9,0.1
		c0.4,0.1,0.8-0.2,1-0.6l0.6-1.8l1.2,1.2c0.3,0.3,0.8,0.3,1.1,0l6.9-6.9C19.3,3,19.5,3,19.7,3l1.5,0.3c0.1,0,0.1,0.1,0.1,0.2
		L21.3,6.3z"/>
            <path d="M6.7,15.3c-0.4,0-0.9,0.2-1.2,0.5C5.2,16.1,5,16.6,5,17c0,0.4,0.2,0.9,0.5,1.2c0.3,0.3,0.7,0.5,1.2,0.5s0.9-0.2,1.2-0.5
		c0.3-0.3,0.5-0.7,0.5-1.2c0-0.4-0.2-0.9-0.5-1.2C7.6,15.5,7.2,15.3,6.7,15.3z M7.4,17.7C7.2,17.9,7,18,6.7,18
		c-0.3,0-0.5-0.1-0.7-0.3c-0.2-0.2-0.3-0.4-0.3-0.7c0-0.3,0.1-0.5,0.3-0.7C6.2,16.1,6.5,16,6.7,16c0.3,0,0.5,0.1,0.7,0.3
		c0.2,0.2,0.3,0.4,0.3,0.7C7.7,17.3,7.6,17.5,7.4,17.7z"/></g>
    </defs>
</svg>